<?xml version="1.0" encoding="iso-8859-1"?>
<!DOCTYPE svg PUBLIC "-//W3C//DTD SVG 1.1 Basic//EN" "http://www.w3.org/Graphics/SVG/1.1/DTD/svg11-basic.dtd">
<svg version="1.1" baseProfile="basic"
   xmlns="http://www.w3.org/2000/svg" xmlns:xlink="http://www.w3.org/1999/xlink" x="0px" y="0px" width="64px" height="64px"
   viewBox="0 0 64 64" xml:space="preserve">
   <path transform="matrix(0.064,0,0,0.064,0,6)" style="fill:#EEEEEE" d="M 994 619 L 972 597 L 972 34 C 972 15 957 0 937 0 L 35 0 C 15 0 0 15 0 34 L 0 672 C 0 691 15 706 35 706 L 680 706 L 680 704 C 683 707 688 709 692 709 L 830 709 L 830 764 C 830 771 834 777 841 780 C 843 781 845 781 848 781 C 852 781 857 780 860 776 L 994 644 C 998 640 1000 636 1000 631 C 999 627 998 622 994 619 z M 860 486 C 855 481 848 480 841 483 C 834 485 830 492 830 499 L 830 535 L 641 351 L 937 64 L 937 563 L 860 486 z M 35 638 L 35 64 L 328 351 L 35 638 z M 54 34 L 918 34 L 484 455 L 54 34 z M 675 571 L 675 672 L 51 672 L 353 375 L 471 491 C 475 495 479 496 484 496 C 488 496 493 495 496 491 L 616 375 L 798 553 L 692 553 C 683 553 675 561 675 571 z M 865 722 L 865 692 C 865 682 857 675 848 675 L 710 675 L 710 588 L 848 588 C 857 588 865 580 865 571 L 865 541 L 957 631 L 865 722 z"/>
</svg>