<?xml version="1.0" encoding="iso-8859-1"?>
<!DOCTYPE svg PUBLIC "-//W3C//DTD SVG 1.1 Basic//EN" "http://www.w3.org/Graphics/SVG/1.1/DTD/svg11-basic.dtd">
<svg version="1.1" baseProfile="basic"
   xmlns="http://www.w3.org/2000/svg" xmlns:xlink="http://www.w3.org/1999/xlink" x="0px" y="0px" width="64px" height="64px"
   viewBox="0 0 64 64" xml:space="preserve">
   <path transform="matrix(0.064,0,0,0.064,0,0)" style="fill:#EEEEEE" d="M 861 0 L 137 0 C 61 0 0 61 0 137 L 0 856 C 0 932 61 994 137 994 L 861 994 C 938 994 999 932 999 856 L 999 137 C 999 61 938 0 861 0 z M 755 429 C 755 473 719 510 674 510 L 408 510 L 408 560 C 408 626 414 676 516 676 L 674 676 C 719 676 755 712 755 757 L 755 759 C 755 804 719 840 674 840 L 516 840 L 498 840 L 488 840 C 385 840 244 789 244 594 L 244 234 C 244 189 280 153 325 153 L 327 153 C 372 153 408 189 408 234 L 408 345 L 674 345 C 719 345 755 382 755 426 L 755 429 z"/>
</svg>